<svg xmlns="http://www.w3.org/2000/svg" xmlns:xlink="http://www.w3.org/1999/xlink" width="500" zoomAndPan="magnify" viewBox="0 0 375 374.999991" height="500" preserveAspectRatio="xMidYMid meet" version="1.0"><defs><clipPath id="a4b19d5276"><path d="M 72 10.667969 L 327.417969 10.667969 L 327.417969 375 L 72 375 Z M 72 10.667969 " clip-rule="nonzero"/></clipPath><clipPath id="872c1bf8a5"><path d="M 120.707031 204.402344 L 270.707031 204.402344 L 270.707031 354.402344 L 120.707031 354.402344 Z M 120.707031 204.402344 " clip-rule="nonzero"/></clipPath></defs><g clip-path="url(#a4b19d5276)"><path fill="#f2f3fd" d="M 95.363281 427.503906 L 304.652344 427.503906 C 318.988281 427.503906 329.753906 414.410156 326.984375 400.347656 L 252.03125 19.902344 C 250.46875 11.972656 240.183594 9.746094 235.484375 16.324219 L 217.847656 41.019531 C 216.585938 42.78125 214.554688 43.828125 212.390625 43.828125 L 183.023438 43.828125 C 180.816406 43.828125 178.757812 42.746094 177.503906 40.933594 L 159.359375 14.652344 C 154.972656 8.304688 145.199219 9.824219 142.953125 17.207031 L 72.972656 400.660156 C 70.425781 414.636719 81.15625 427.503906 95.363281 427.503906 " fill-opacity="1" fill-rule="nonzero"/></g><path fill="#21201f" d="M 71.445312 345.367188 C 81.113281 355.195312 90.242188 364.476562 95.152344 376.007812 C 100.578125 388.761719 106.902344 414.726562 95.039062 427.503906 L 123.433594 427.503906 C 125.472656 421.589844 126.597656 415.019531 126.738281 407.867188 C 126.992188 394.851562 123.859375 379.671875 118.132812 366.226562 C 111.367188 350.339844 100.125 338.90625 89.25 327.847656 C 80.347656 318.800781 71.9375 310.253906 66.808594 299.984375 C 55.136719 276.625 65.179688 244.457031 87.875 232.496094 C 93.976562 229.277344 96.316406 221.726562 93.101562 215.621094 C 89.890625 209.523438 82.335938 207.183594 76.230469 210.394531 C 41.609375 228.640625 26.765625 275.726562 44.464844 311.144531 C 51.363281 324.949219 61.570312 335.328125 71.445312 345.367188 Z M 206.5 106.730469 L 193.910156 106.730469 C 191.363281 106.730469 190.085938 109.8125 191.886719 111.613281 L 198.179688 117.910156 C 199.296875 119.023438 201.109375 119.023438 202.226562 117.910156 L 208.519531 111.613281 C 210.320312 109.8125 209.046875 106.730469 206.5 106.730469 Z M 231.425781 85.957031 C 224.90625 85.957031 219.625 91.238281 219.625 97.753906 C 219.625 104.269531 224.90625 109.550781 231.425781 109.550781 C 237.9375 109.550781 243.21875 104.269531 243.21875 97.753906 C 243.21875 91.238281 237.9375 85.957031 231.425781 85.957031 Z M 168.984375 85.957031 C 162.46875 85.957031 157.1875 91.238281 157.1875 97.753906 C 157.1875 104.269531 162.46875 109.550781 168.984375 109.550781 C 175.5 109.550781 180.78125 104.269531 180.78125 97.753906 C 180.78125 91.238281 175.5 85.957031 168.984375 85.957031 " fill-opacity="1" fill-rule="nonzero"/><path fill="#21201f" d="M 114.265625 174.40625 C 140.082031 179.980469 172.609375 182.570312 206.753906 181.707031 C 233.933594 181.015625 259.957031 178.1875 282.3125 173.601562 L 275.070312 136.851562 C 256.988281 140.59375 233.753906 143.546875 205.808594 144.253906 C 169.296875 145.175781 140.675781 141.867188 120.996094 137.519531 L 114.265625 174.40625 " fill-opacity="1" fill-rule="nonzero"/><g clip-path="url(#872c1bf8a5)"><path fill="#21201f" d="M 220.832031 342.957031 C 220.832031 353.945312 217.636719 354.402344 209.386719 354.402344 L 183.789062 354.402344 C 177.820312 354.402344 172.796875 353.945312 172.796875 345.730469 L 172.796875 302.71875 L 132.136719 302.71875 C 121.179688 302.71875 120.722656 298.609375 120.722656 291.730469 L 120.722656 263.847656 C 120.722656 257.457031 121.636719 254.71875 133.046875 254.71875 L 172.832031 254.71875 L 172.832031 215.847656 C 172.832031 204.859375 176.9375 204.402344 183.820312 204.402344 L 211.699219 204.402344 C 218.089844 204.402344 220.832031 205.316406 220.832031 216.761719 L 220.832031 254.71875 L 259.242188 254.71875 C 270.234375 254.71875 270.6875 257.914062 270.6875 266.164062 L 270.6875 291.761719 C 270.6875 297.695312 270.234375 302.75 262.015625 302.75 L 220.832031 302.75 Z M 220.832031 342.957031 " fill-opacity="1" fill-rule="nonzero"/></g></svg>